<svg width="60" height="60" viewBox="0 0 60 60" fill="none" xmlns="http://www.w3.org/2000/svg">
<g clip-path="url(#clip0_81_567)">
<path d="M60 49.1026V10.8974C60.0013 9.46599 59.7274 8.04832 59.1939 6.72558C58.6604 5.40283 57.8778 4.20097 56.8909 3.18878C55.9041 2.17659 54.7322 1.37394 53.4426 0.826775C52.1529 0.279605 50.7707 -0.00134432 49.375 4.83609e-06L60 49.1026ZM60 49.1026C60.0013 50.534 59.7274 51.9517 59.1939 53.2744C58.6604 54.5972 57.8778 55.799 56.8909 56.8112C55.9041 57.8234 54.7322 58.6261 53.4426 59.1732C52.1529 59.7204 50.7707 60.0013 49.375 60H10.625M60 49.1026L10.625 60M10.625 60C9.22934 60.0013 7.84711 59.7204 6.55744 59.1732M10.625 60L6.55744 59.1732M6.55744 59.1732C5.26776 58.6261 4.09595 57.8234 3.10906 56.8112M6.55744 59.1732L3.10906 56.8112M3.10906 56.8112C2.12218 55.799 1.3396 54.5972 0.806105 53.2744M3.10906 56.8112L0.806105 53.2744M0.806105 53.2744C0.272615 51.9517 -0.00131071 50.534 4.71519e-06 49.1026L0.806105 53.2744ZM10.6245 0.500005H10.625L49.375 0.500005L49.3755 0.500005C50.7036 0.498721 52.0193 0.76606 53.2473 1.28706C54.4753 1.80807 55.5919 2.57271 56.5329 3.53783C57.474 4.50298 58.2208 5.64967 58.7302 6.9126C59.2396 8.17554 59.5013 9.52953 59.5 10.897V10.8974V49.1026V49.103C59.5013 50.4705 59.2396 51.8245 58.7302 53.0874C58.2208 54.3503 57.474 55.497 56.5329 56.4622C55.5919 57.4273 54.4753 58.1919 53.2473 58.7129C52.0193 59.2339 50.7036 59.5013 49.3755 59.5H49.375H10.625H10.6245C9.29638 59.5013 7.98072 59.2339 6.75272 58.7129C5.52469 58.1919 4.40806 57.4273 3.46706 56.4622C2.52604 55.497 1.77917 54.3503 1.26981 53.0874C0.760441 51.8245 0.498748 50.4705 0.500005 49.103V49.1026L0.500005 10.8974L0.500005 10.897C0.498748 9.52953 0.760441 8.17554 1.26981 6.9126C1.77917 5.64967 2.52604 4.50298 3.46706 3.53783C4.40806 2.57271 5.52469 1.80808 6.75272 1.28706C7.98072 0.76606 9.29638 0.498721 10.6245 0.500005Z" stroke="white"/>
<path d="M30.0038 53.2473L16.5076 49.5006L13.5 15.7673H46.548L43.5373 49.4955L30.0038 53.2473Z" fill="#BABABA"/>
<path d="M40.9597 47.3477L43.5324 18.5254H30.0239V50.3794L40.9597 47.3477Z" fill="#9C9C9C"/>
<path d="M20.3948 31.0367L20.7655 35.174H30.0239V31.0367H20.3948ZM19.6497 22.6628L20.0257 26.8001H30.0239V22.6628H19.6497ZM30.0239 41.7816L30.0058 41.7864L25.3982 40.5423L25.1036 37.2427H20.9504L21.53 43.7388L30.0049 46.0913L30.0239 46.0861V41.7816Z" fill="white"/>
<path d="M21.2776 6.59998H26.2884V8.69548H23.3731V10.791H26.2886V12.8864H21.2776V6.59998ZM27.2906 6.59998H32.3015V8.42214H29.3861V8.78655H32.3015V12.9776H27.2908V11.0641H30.2062V10.6997H27.2905V6.59998H27.2906ZM33.3038 6.59998H38.3147V8.42214H35.3993V8.78655H38.3147V12.9776H33.3038V11.0641H36.2192V10.6997H33.3039V6.59998H33.3038Z" fill="white"/>
<path d="M39.6266 31.0367L40.3734 22.6628H30.0097V26.8001H35.8394L35.4629 31.0367H30.0097V35.1739H35.1042L34.6239 40.5397L30.0095 41.7851V46.0893L38.4912 43.7388L38.5533 43.0397L39.5257 32.1477L39.6266 31.0367Z" fill="white"/>
</g>
<defs>
<clipPath id="clip0_81_567">
<rect width="60" height="60" fill="white"/>
</clipPath>
</defs>
</svg>
