<svg width="60" height="60" viewBox="0 0 60 60" fill="none" xmlns="http://www.w3.org/2000/svg">
<g clip-path="url(#clip0_81_575)">
<path d="M60 49.1026V10.8974C60.0013 9.46599 59.7274 8.04832 59.1939 6.72558C58.6604 5.40283 57.8778 4.20097 56.891 3.18878C55.9041 2.17659 54.7323 1.37394 53.4426 0.826775C52.1529 0.279605 50.7707 -0.00134432 49.375 4.83609e-06L60 49.1026ZM60 49.1026C60.0013 50.534 59.7274 51.9517 59.1939 53.2744C58.6604 54.5972 57.8778 55.799 56.891 56.8112C55.9041 57.8234 54.7323 58.6261 53.4426 59.1732C52.1529 59.7204 50.7707 60.0013 49.375 60H10.625M60 49.1026L10.625 60M10.625 60C9.22934 60.0013 7.84712 59.7204 6.55744 59.1732M10.625 60L6.55744 59.1732M6.55744 59.1732C5.26776 58.6261 4.09595 57.8234 3.10906 56.8112M6.55744 59.1732L3.10906 56.8112M3.10906 56.8112C2.12218 55.799 1.3396 54.5972 0.806106 53.2744M3.10906 56.8112L0.806106 53.2744M0.806106 53.2744C0.272615 51.9517 -0.00131071 50.534 4.71519e-06 49.1026L0.806106 53.2744ZM10.6245 0.500005H10.625L49.375 0.500005L49.3755 0.500005C50.7036 0.498721 52.0193 0.76606 53.2473 1.28706C54.4753 1.80808 55.592 2.57271 56.533 3.53783C57.474 4.50298 58.2208 5.64967 58.7302 6.9126C59.2396 8.17554 59.5013 9.52953 59.5 10.897V10.8974V49.1026V49.103C59.5013 50.4705 59.2396 51.8245 58.7302 53.0874C58.2208 54.3503 57.474 55.497 56.533 56.4622C55.592 57.4273 54.4753 58.1919 53.2473 58.7129C52.0193 59.2339 50.7036 59.5013 49.3755 59.5H49.375H10.625H10.6245C9.29638 59.5013 7.98072 59.2339 6.75272 58.7129C5.52469 58.1919 4.40806 57.4273 3.46706 56.4622C2.52604 55.497 1.77917 54.3503 1.26981 53.0874C0.760441 51.8245 0.498748 50.4705 0.500005 49.103V49.1026L0.500005 10.8974L0.500005 10.897C0.498748 9.52953 0.760441 8.17554 1.26981 6.9126C1.77917 5.64967 2.52604 4.50298 3.46706 3.53783C4.40806 2.57271 5.52469 1.80808 6.75272 1.28706C7.98072 0.76606 9.29638 0.498721 10.6245 0.500005Z" stroke="white"/>
<path d="M24.25 48.3C27.7018 48.3 30.5 45.5018 30.5 42.05V35.8H24.25C20.7982 35.8 18 38.5983 18 42.05C18 45.5018 20.7982 48.3 24.25 48.3Z" fill="#A4A9A7"/>
<path d="M18 29.5501C18 26.0983 20.7982 23.3 24.25 23.3H30.5V35.8001H24.25C20.7982 35.8001 18 33.0018 18 29.5501Z" fill="#B6B6B6"/>
<path d="M18 17.0501C18 13.5983 20.7982 10.8 24.25 10.8H30.5V23.3001H24.25C20.7982 23.3001 18 20.5018 18 17.0501Z" fill="#DDDADA"/>
<path d="M30.5 10.8H36.75C40.2018 10.8 43 13.5983 43 17.0501C43 20.5018 40.2018 23.3001 36.75 23.3001H30.5V10.8Z" fill="white"/>
<path d="M43 29.5501C43 33.0018 40.2018 35.8001 36.75 35.8001C33.2982 35.8001 30.5 33.0018 30.5 29.5501C30.5 26.0983 33.2982 23.3 36.75 23.3C40.2018 23.3 43 26.0983 43 29.5501Z" fill="white"/>
</g>
<defs>
<clipPath id="clip0_81_575">
<rect width="60" height="60" fill="white"/>
</clipPath>
</defs>
</svg>
