<svg width="41" height="40" viewBox="0 0 41 40" fill="none" xmlns="http://www.w3.org/2000/svg">
<path d="M40.3162 15.6279L40.261 15.4805L34.6808 0.924825C34.5679 0.639021 34.3668 0.396573 34.107 0.232576C33.913 0.108437 33.6927 0.0314555 33.4637 0.0078006C33.2347 -0.0158562 33.0034 0.0144731 32.7881 0.0963558C32.573 0.178241 32.3798 0.3094 32.2245 0.479325C32.0692 0.649247 31.9558 0.853208 31.8934 1.07486L28.1268 12.6062H12.8736L9.10696 1.07486C9.04413 0.853539 8.93047 0.649963 8.77502 0.480364C8.61956 0.310766 8.42663 0.179839 8.21158 0.098022C7.99656 0.016205 7.76541 -0.0142366 7.53652 0.00912457C7.30765 0.0324873 7.0874 0.109003 6.89333 0.232576C6.63346 0.396573 6.43247 0.639021 6.31952 0.924825L0.742033 15.4831L0.684126 15.6279C-0.118871 17.7265 -0.217797 20.0293 0.402261 22.189C1.02232 24.3488 2.32774 26.2485 4.12171 27.6014L4.14277 27.6172L4.19012 27.654L12.6788 34.0159L16.8902 37.1981L19.4486 39.1327C19.7488 39.3596 20.1148 39.4823 20.491 39.4823C20.8672 39.4823 21.2331 39.3596 21.5333 39.1327L24.0917 37.1981L28.3032 34.0159L36.8523 27.6172L36.876 27.5987C38.6698 26.2463 39.9754 24.3472 40.596 22.188C41.2164 20.0288 41.1183 17.7264 40.3162 15.6279Z" fill="white"/>
<path d="M40.3162 15.6277L40.2609 15.4803C37.5422 16.0382 34.9803 17.1905 32.7593 18.8547L20.5067 28.1198L28.3084 34.0158L36.8576 27.6171L36.8812 27.5986C38.6743 26.2455 39.9787 24.3461 40.5984 22.187C41.2177 20.0278 41.1187 17.7257 40.3162 15.6277Z" fill="white"/>
<path d="M12.6787 34.0162L16.8901 37.1984L19.4486 39.1331C19.7488 39.3599 20.1147 39.4826 20.4909 39.4826C20.8671 39.4826 21.233 39.3599 21.5332 39.1331L24.0917 37.1984L28.3031 34.0162L20.5014 28.1202L12.6787 34.0162Z" fill="white"/>
<path d="M8.24098 18.8548C6.02067 17.1915 3.45981 16.0401 0.742034 15.4831L0.684127 15.6279C-0.118871 17.7265 -0.217797 20.0293 0.402261 22.189C1.02232 24.3488 2.32774 26.2484 4.12171 27.6013L4.14277 27.6171L4.19012 27.654L12.6788 34.0158L20.4857 28.1199L8.24098 18.8548Z" fill="white"/>
</svg>
