<svg width="40" height="40" viewBox="0 0 40 40" fill="none" xmlns="http://www.w3.org/2000/svg">
<path d="M39.2727 20.4802C39.2727 19.0531 39.145 17.6808 38.9077 16.3635H20V24.1485H30.8044C30.339 26.6643 28.9246 28.7958 26.7984 30.2229V35.2726H33.2865C37.0826 31.7689 39.2727 26.6094 39.2727 20.4802V20.4802Z" fill="white"/>
<path d="M19.9393 40.0001C25.3046 40.0001 29.8028 38.1911 33.0906 35.1057L26.6685 30.0368C24.8891 31.249 22.6129 31.9652 19.9393 31.9652C14.7637 31.9652 10.383 28.4115 8.82038 23.6365H2.18152V28.8706C5.45127 35.473 12.1714 40.0001 19.9393 40.0001Z" fill="white"/>
<path d="M8.72727 23.8464C8.33099 22.6319 8.10583 21.3345 8.10583 20.0003C8.10583 18.6661 8.33099 17.3687 8.72727 16.1541V10.9094H2.10752C0.720518 13.7302 -0.00122241 16.8435 1.55413e-06 20.0003C1.55413e-06 23.2667 0.765552 26.3584 2.10752 29.0912L8.72727 23.8464V23.8464Z" fill="white"/>
<path d="M20.0646 8.0349C23.0027 8.0349 25.6406 9.05418 27.7145 11.056L33.4542 5.26171C29.9886 2.00184 25.4587 0 20.0646 0C12.2419 0 5.47434 4.52709 2.18152 11.1295L8.86722 16.3636C10.4409 11.5886 14.8525 8.0349 20.0646 8.0349Z" fill="white"/>
</svg>
