<svg width="60" height="60" viewBox="0 0 60 60" fill="none" xmlns="http://www.w3.org/2000/svg">
<g clip-path="url(#clip0_81_559)">
<path d="M60 49.1026V10.8974C60.0013 9.46599 59.7274 8.04832 59.1939 6.72558C58.6604 5.40283 57.8778 4.20097 56.8909 3.18878C55.9041 2.17659 54.7322 1.37394 53.4426 0.826775C52.1529 0.279605 50.7707 -0.00134432 49.375 4.83609e-06L60 49.1026ZM60 49.1026C60.0013 50.534 59.7274 51.9517 59.1939 53.2744C58.6604 54.5972 57.8778 55.799 56.8909 56.8112C55.9041 57.8234 54.7322 58.6261 53.4426 59.1732C52.1529 59.7204 50.7707 60.0013 49.375 60H10.625M60 49.1026L10.625 60M10.625 60C9.22934 60.0013 7.84711 59.7204 6.55744 59.1732M10.625 60L6.55744 59.1732M6.55744 59.1732C5.26776 58.6261 4.09595 57.8234 3.10906 56.8112M6.55744 59.1732L3.10906 56.8112M3.10906 56.8112C2.12218 55.799 1.3396 54.5972 0.806105 53.2744M3.10906 56.8112L0.806105 53.2744M0.806105 53.2744C0.272615 51.9517 -0.00131071 50.534 4.71519e-06 49.1026L0.806105 53.2744ZM10.6245 0.500005H10.625L49.375 0.500005L49.3755 0.500005C50.7036 0.498721 52.0193 0.76606 53.2473 1.28706C54.4753 1.80807 55.5919 2.57271 56.5329 3.53783C57.474 4.50298 58.2208 5.64967 58.7302 6.9126C59.2396 8.17554 59.5013 9.52953 59.5 10.897V10.8974V49.1026V49.103C59.5013 50.4705 59.2396 51.8245 58.7302 53.0874C58.2208 54.3503 57.474 55.497 56.5329 56.4622C55.5919 57.4273 54.4753 58.1919 53.2473 58.7129C52.0193 59.2339 50.7036 59.5013 49.3755 59.5H49.375H10.625H10.6245C9.29638 59.5013 7.98072 59.2339 6.75272 58.7129C5.52469 58.1919 4.40806 57.4273 3.46706 56.4622C2.52604 55.497 1.77917 54.3503 1.26981 53.0874C0.760441 51.8245 0.498748 50.4705 0.500005 49.103V49.1026L0.500005 10.8974L0.500005 10.897C0.498748 9.52953 0.760441 8.17554 1.26981 6.9126C1.77917 5.64967 2.52604 4.50298 3.46706 3.53783C4.40806 2.57271 5.52469 1.80808 6.75272 1.28706C7.98072 0.76606 9.29638 0.498721 10.6245 0.500005Z" stroke="white"/>
<path d="M46.5244 15.7675L43.5136 49.4964L29.9798 53.2483L16.4833 49.5016L13.4756 15.7675H46.5244Z" fill="#BCBCBC"/>
<path d="M30 50.3805L40.936 47.3487L43.5088 18.5258H30V50.3805Z" fill="#8D8D8D"/>
<path d="M24.1471 26.8006H30V22.6632H19.6255L19.7245 23.7732L20.7414 35.1746H30V31.0373H24.5252L24.1471 26.8006ZM25.0796 37.2434H20.9263L21.5059 43.7396L29.981 46.0922L30 46.087V41.7824L29.9819 41.7872L25.3742 40.5431L25.0796 37.2434Z" fill="white"/>
<path d="M16.5503 6.59998H18.6528V8.67727H20.5762V6.59998H22.6789V12.8905H20.5764V10.7841H18.653V12.8905H16.5504V6.59998H16.5503ZM25.4437 8.68608H23.593V6.59998H29.3985V8.68608H27.5467V12.8905H25.4441V8.68608H25.444H25.4437ZM30.3199 6.59998H32.5122L33.8608 8.81031L35.2081 6.59998H37.4013V12.8905H35.3073V9.77259L33.8608 12.0092H33.8245L32.3771 9.77259V12.8905H30.3199V6.59998ZM38.4477 6.59998H40.5509V10.8113H43.5077V12.8905H38.4475V6.59998H38.4477Z" fill="white"/>
<path d="M29.9857 35.1746H35.0804L34.6001 40.5405L29.9856 41.7859V46.0903L38.4674 43.7397L38.5296 43.0406L39.502 32.1483L39.6029 31.0373H29.9857V35.1746ZM29.9857 26.7905V26.8006H39.9794L40.0623 25.8707L40.2509 23.7732L40.3498 22.6632H29.9857V26.7906V26.7905Z" fill="white"/>
</g>
<defs>
<clipPath id="clip0_81_559">
<rect width="60" height="60" fill="white"/>
</clipPath>
</defs>
</svg>
