<svg width="60" height="60" viewBox="0 0 60 60" fill="none" xmlns="http://www.w3.org/2000/svg">
<g clip-path="url(#clip0_81_556)">
<path d="M60 49.1026V10.8974C60.0013 9.46599 59.7274 8.04832 59.1939 6.72558C58.6604 5.40283 57.8778 4.20097 56.8909 3.18878C55.9041 2.17659 54.7322 1.37394 53.4426 0.826775C52.1529 0.279605 50.7707 -0.00134432 49.375 4.83609e-06L60 49.1026ZM60 49.1026C60.0013 50.534 59.7274 51.9517 59.1939 53.2744C58.6604 54.5972 57.8778 55.799 56.8909 56.8112C55.9041 57.8234 54.7322 58.6261 53.4426 59.1732C52.1529 59.7204 50.7707 60.0013 49.375 60H10.625M60 49.1026L10.625 60M10.625 60C9.22934 60.0013 7.84711 59.7204 6.55744 59.1732M10.625 60L6.55744 59.1732M6.55744 59.1732C5.26776 58.6261 4.09595 57.8234 3.10906 56.8112M6.55744 59.1732L3.10906 56.8112M3.10906 56.8112C2.12218 55.799 1.3396 54.5972 0.806105 53.2744M3.10906 56.8112L0.806105 53.2744M0.806105 53.2744C0.272615 51.9517 -0.00131071 50.534 4.71519e-06 49.1026L0.806105 53.2744ZM10.6245 0.500005H10.625L49.375 0.500005L49.3755 0.500005C50.7036 0.498721 52.0193 0.76606 53.2473 1.28706C54.4753 1.80807 55.5919 2.57271 56.5329 3.53783C57.474 4.50298 58.2208 5.64967 58.7302 6.9126C59.2396 8.17554 59.5013 9.52953 59.5 10.897V10.8974V49.1026V49.103C59.5013 50.4705 59.2396 51.8245 58.7302 53.0874C58.2208 54.3503 57.474 55.497 56.5329 56.4622C55.5919 57.4273 54.4753 58.1919 53.2473 58.7129C52.0193 59.2339 50.7036 59.5013 49.3755 59.5H49.375H10.625H10.6245C9.29638 59.5013 7.98072 59.2339 6.75272 58.7129C5.52469 58.1919 4.40806 57.4273 3.46706 56.4622C2.52604 55.497 1.77917 54.3503 1.26981 53.0874C0.760441 51.8245 0.498748 50.4705 0.500005 49.103V49.1026L0.500005 10.8974L0.500005 10.897C0.498748 9.52953 0.760441 8.17554 1.26981 6.9126C1.77917 5.64967 2.52604 4.50298 3.46706 3.53783C4.40806 2.57271 5.52469 1.80808 6.75272 1.28706C7.98072 0.76606 9.29638 0.498721 10.6245 0.500005Z" stroke="white"/>
<path d="M40.4067 46.9477C41.6152 48.921 43.1876 50.3715 45.9686 50.3715C48.3048 50.3715 49.7971 49.2038 49.7971 47.5905C49.7971 45.6572 48.2638 44.9724 45.6924 43.8477L44.2829 43.2429C40.2143 41.5096 37.5114 39.3381 37.5114 34.7477C37.5114 30.5191 40.7333 27.3 45.7686 27.3C49.3533 27.3 51.9305 28.5477 53.7876 31.8143L49.3971 34.6334C48.4305 32.9 47.3876 32.2172 45.7686 32.2172C44.1171 32.2172 43.0705 33.2648 43.0705 34.6334C43.0705 36.3248 44.1181 37.0096 46.5371 38.0572L47.9467 38.661C52.7371 40.7153 55.4419 42.8096 55.4419 47.5181C55.4419 52.5943 51.4543 55.3753 46.0991 55.3753C40.8629 55.3753 37.48 52.88 35.8248 49.6096L40.4067 46.9477ZM20.4895 47.4362C21.3753 49.0077 22.181 50.3362 24.1181 50.3362C25.9705 50.3362 27.1391 49.6115 27.1391 46.7934V27.622H32.7772V46.8696C32.7772 52.7077 29.3543 55.3648 24.3581 55.3648C19.8438 55.3648 17.2295 53.0286 15.9 50.2148L20.4895 47.4362Z" fill="white"/>
</g>
<defs>
<clipPath id="clip0_81_556">
<rect width="60" height="60" fill="white"/>
</clipPath>
</defs>
</svg>
