<svg width="60" height="60" viewBox="0 0 60 60" fill="none" xmlns="http://www.w3.org/2000/svg">
<g clip-path="url(#clip0_81_603)">
<path d="M60 49.1026V10.8974C60.0013 9.46599 59.7274 8.04832 59.1939 6.72558C58.6604 5.40283 57.8778 4.20097 56.8909 3.18878C55.9041 2.17659 54.7323 1.37394 53.4426 0.826775C52.1529 0.279605 50.7707 -0.00134432 49.375 4.83609e-06L60 49.1026ZM60 49.1026C60.0013 50.534 59.7274 51.9517 59.1939 53.2744C58.6604 54.5972 57.8778 55.799 56.8909 56.8112C55.9041 57.8234 54.7323 58.6261 53.4426 59.1732C52.1529 59.7204 50.7707 60.0013 49.375 60H10.625M60 49.1026L10.625 60M10.625 60C9.22934 60.0013 7.84712 59.7204 6.55744 59.1732M10.625 60L6.55744 59.1732M6.55744 59.1732C5.26776 58.6261 4.09595 57.8234 3.10906 56.8112M6.55744 59.1732L3.10906 56.8112M3.10906 56.8112C2.12218 55.799 1.3396 54.5972 0.806106 53.2744M3.10906 56.8112L0.806106 53.2744M0.806106 53.2744C0.272615 51.9517 -0.00131071 50.534 4.71519e-06 49.1026L0.806106 53.2744ZM10.6245 0.500005H10.625L49.375 0.500005L49.3755 0.500005C50.7036 0.498721 52.0193 0.76606 53.2473 1.28706C54.4753 1.80808 55.5919 2.57271 56.5329 3.53783C57.474 4.50298 58.2208 5.64968 58.7302 6.9126C59.2396 8.17554 59.5013 9.52954 59.5 10.897V10.8974V49.1026V49.103C59.5013 50.4705 59.2396 51.8245 58.7302 53.0874C58.2208 54.3503 57.474 55.497 56.5329 56.4622C55.5919 57.4273 54.4753 58.1919 53.2473 58.7129C52.0193 59.2339 50.7036 59.5013 49.3755 59.5H49.375H10.625H10.6245C9.29638 59.5013 7.98072 59.2339 6.75272 58.7129C5.52469 58.1919 4.40806 57.4273 3.46706 56.4622C2.52604 55.497 1.77917 54.3503 1.26981 53.0874C0.760441 51.8245 0.498748 50.4705 0.500005 49.103V49.1026L0.500005 10.8974L0.500005 10.897C0.498748 9.52954 0.760441 8.17554 1.26981 6.9126C1.77917 5.64967 2.52604 4.50298 3.46706 3.53783C4.40806 2.57271 5.52469 1.80808 6.75272 1.28706C7.98072 0.76606 9.29638 0.498721 10.6245 0.500005Z" stroke="white"/>
<path d="M14.1541 33.5054C15.613 33.5054 16.7021 33.2364 17.3912 32.706C18.073 32.1811 18.5438 31.2717 18.7906 30.0031C19.0207 28.8174 18.9331 27.9895 18.5302 27.5427C18.1182 27.0864 17.2275 26.8549 15.8829 26.8549H13.5515L12.259 33.5054H14.1541ZM6.52867 41.6976C6.42045 41.6976 6.31767 41.6493 6.24887 41.5656C6.17994 41.482 6.15201 41.372 6.17269 41.2657L9.59806 23.6418C9.63119 23.4714 9.78052 23.3483 9.95416 23.3483H17.3367C19.6569 23.3483 21.3838 23.9783 22.4693 25.2209C23.5606 26.4702 23.8976 28.2163 23.4709 30.4109C23.2972 31.305 22.9986 32.1353 22.5832 32.8787C22.1674 33.623 21.6178 34.3116 20.9495 34.9258C20.1495 35.6746 19.2441 36.2175 18.2608 36.537C17.293 36.8522 16.0503 37.012 14.5669 37.012H11.5776L10.7239 41.404C10.6908 41.5745 10.5416 41.6976 10.3679 41.6976H6.52867Z" fill="#0B090C"/>
<path d="M13.8505 27.2177H15.8829C17.5057 27.2177 18.0695 27.5738 18.261 27.786C18.5788 28.1384 18.6387 28.8813 18.4345 29.9344C18.205 31.1133 17.7796 31.9492 17.17 32.4186C16.5458 32.8992 15.531 33.1427 14.1541 33.1427H12.699L13.8505 27.2177ZM17.3367 22.9856H9.95403C9.60675 22.9856 9.30821 23.2318 9.24194 23.5726L5.81657 41.1966C5.77521 41.4093 5.83108 41.6292 5.9688 41.7965C6.10665 41.9637 6.31197 42.0604 6.52866 42.0604H10.3678C10.7152 42.0604 11.0138 41.8142 11.08 41.4734L11.8766 37.3748H14.5669C16.0883 37.3748 17.3691 37.2089 18.3733 36.8819C19.4061 36.5463 20.3563 35.9774 21.1973 35.1909C21.8928 34.551 22.4657 33.8328 22.8998 33.0559C23.334 32.2787 23.646 31.4121 23.827 30.4801C24.2762 28.1701 23.9113 26.3203 22.7425 24.9824C21.585 23.6574 19.7662 22.9856 17.3367 22.9856ZM11.8188 33.8682H14.1541C15.702 33.8682 16.855 33.5767 17.6125 32.9935C18.3702 32.4102 18.8812 31.4367 19.1467 30.0725C19.4008 28.7627 19.2851 27.8384 18.7996 27.2999C18.3135 26.7615 17.3414 26.4922 15.8829 26.4922H13.2524L11.8188 33.8682ZM17.3367 23.7111C19.5576 23.7111 21.1778 24.2939 22.1962 25.4597C23.2144 26.6255 23.5211 28.2527 23.1148 30.3418C22.9476 31.2023 22.6647 31.9891 22.2665 32.702C21.8679 33.4153 21.3473 34.0675 20.704 34.6589C19.9374 35.3763 19.0858 35.8875 18.1487 36.192C17.2115 36.4973 16.018 36.6493 14.5669 36.6493H11.2784L10.3678 41.3349H6.52866L9.95403 23.7111H17.3367Z" fill="white"/>
<path d="M32.2734 37.0121C32.1651 37.0121 32.0624 36.9637 31.9936 36.88C31.9246 36.7965 31.8967 36.6866 31.9173 36.5802L33.4326 28.7823C33.5767 28.0407 33.5412 27.5084 33.3326 27.2835C33.2049 27.146 32.8213 26.9154 31.6872 26.9154H28.9421L27.0371 36.7185C27.004 36.889 26.8546 37.0121 26.681 37.0121H22.8721C22.7637 37.0121 22.6611 36.9637 22.5921 36.88C22.5232 36.7965 22.4953 36.6865 22.5159 36.5802L25.9413 18.9562C25.9745 18.7858 26.1238 18.6627 26.2974 18.6627H30.1064C30.2147 18.6627 30.3174 18.7111 30.3863 18.7947C30.4552 18.8783 30.4831 18.9883 30.4625 19.0947L29.6359 23.3483H32.5889C34.8386 23.3483 36.3641 23.7449 37.2526 24.5609C38.1583 25.3933 38.4409 26.7242 38.0926 28.5172L36.4989 36.7185C36.4658 36.889 36.3166 37.0121 36.1428 37.0121H32.2734Z" fill="#0B090C"/>
<path d="M30.1063 18.2999H26.2974C25.95 18.2999 25.6515 18.5461 25.5852 18.887L22.1598 36.5109C22.1185 36.7236 22.1743 36.9436 22.3122 37.1108C22.45 37.278 22.6554 37.3748 22.872 37.3748H26.681C27.0282 37.3748 27.3269 37.1286 27.3932 36.7877L29.2412 27.2781H31.6872C32.8194 27.2781 33.057 27.5199 33.0665 27.5303C33.1352 27.6042 33.2255 27.9464 33.0764 28.713L31.5612 36.5109C31.5199 36.7236 31.5757 36.9436 31.7136 37.1108C31.8514 37.278 32.0567 37.3748 32.2734 37.3748H36.1428C36.4901 37.3748 36.7887 37.1286 36.855 36.7877L38.4486 28.5864C38.8226 26.6613 38.5026 25.2172 37.4981 24.2938C36.5394 23.4134 34.9336 22.9855 32.5889 22.9855H30.0757L30.8185 19.1639C30.8598 18.9512 30.804 18.7311 30.6662 18.564C30.5283 18.3968 30.323 18.2999 30.1063 18.2999ZM30.1063 19.0254L29.1957 23.711H32.5889C34.7239 23.711 36.1966 24.0837 37.0071 24.828C37.8176 25.5729 38.0604 26.7798 37.7365 28.4481L36.1428 36.6492H32.2734L33.7886 28.8515C33.9611 27.9644 33.8977 27.3593 33.5983 27.0367C33.2988 26.7141 32.6617 26.5526 31.6872 26.5526H28.643L26.681 36.6492H22.872L26.2974 19.0254H30.1063Z" fill="white"/>
<path d="M44.1195 33.5054C45.5783 33.5054 46.6674 33.2364 47.3566 32.706C48.0383 32.1812 48.5091 31.2718 48.7561 30.0031C48.9862 28.8174 48.8985 27.9895 48.4955 27.5427C48.0835 27.0864 47.1928 26.8549 45.8482 26.8549H43.5168L42.2243 33.5054H44.1195ZM36.4941 41.6976C36.3859 41.6976 36.2831 41.6493 36.2143 41.5656C36.1454 41.482 36.1173 41.372 36.138 41.2657L39.5634 23.6418C39.5966 23.4714 39.7458 23.3483 39.9196 23.3483H47.302C49.6223 23.3483 51.3491 23.9783 52.4348 25.2209C53.526 26.47 53.8629 28.2162 53.4363 30.4109C53.2624 31.305 52.9639 32.1353 52.5485 32.8787C52.1327 33.623 51.5831 34.3116 50.9148 34.9258C50.1148 35.6746 49.2094 36.2175 48.2261 36.537C47.2584 36.8522 46.0156 37.012 44.5323 37.012H41.5428L40.6895 41.404C40.6562 41.5745 40.507 41.6976 40.3333 41.6976H36.4941Z" fill="#0B090C"/>
<path d="M43.8159 27.2177H45.8483C47.4712 27.2177 48.0349 27.5738 48.2264 27.786C48.5443 28.1384 48.6043 28.8813 48.4 29.9343C48.1704 31.1133 47.7449 31.9492 47.1354 32.4186C46.5112 32.8992 45.4965 33.1427 44.1196 33.1427H42.6646L43.8159 27.2177ZM47.3021 22.9856H39.9196C39.5723 22.9856 39.2738 23.2318 39.2075 23.5726L35.7821 41.1966C35.7408 41.4093 35.7967 41.6292 35.9344 41.7965C36.0722 41.9637 36.2775 42.0604 36.4942 42.0604H40.3334C40.6807 42.0604 40.9793 41.8142 41.0456 41.4734L41.8421 37.3748H44.5324C46.0538 37.3748 47.3345 37.2089 48.3388 36.8819C49.3715 36.5463 50.3219 35.9773 51.1629 35.1907C51.8584 34.5509 52.4311 33.8328 52.8652 33.0559C53.2994 32.2787 53.6114 31.4121 53.7924 30.4801C54.2416 28.1699 53.8767 26.3201 52.7079 24.9823C51.5505 23.6574 49.7317 22.9856 47.3021 22.9856ZM41.7844 33.8682H44.1196C45.6674 33.8682 46.8204 33.5767 47.5779 32.9935C48.3357 32.4102 48.8466 31.4367 49.1122 30.0725C49.3663 28.7627 49.2506 27.8384 48.765 27.2999C48.2789 26.7615 47.3069 26.4922 45.8483 26.4922H43.2179L41.7844 33.8682ZM47.3021 23.7111C49.523 23.7111 51.1432 24.2939 52.1616 25.4597C53.18 26.6255 53.4865 28.2527 53.0802 30.3418C52.913 31.2023 52.6301 31.9891 52.232 32.702C51.8333 33.4153 51.3127 34.0675 50.6695 34.6589C49.9028 35.3763 49.0512 35.8875 48.1141 36.192C47.177 36.4973 45.9834 36.6493 44.5324 36.6493H41.2439L40.3334 41.3349H36.4942L39.9196 23.7111H47.3021Z" fill="white"/>
</g>
<defs>
<clipPath id="clip0_81_603">
<rect width="60" height="60" fill="white"/>
</clipPath>
</defs>
</svg>
