<svg width="60" height="60" viewBox="0 0 60 60" fill="none" xmlns="http://www.w3.org/2000/svg">
<path d="M60 49.1026V10.8974C60.0013 9.46599 59.7274 8.04832 59.1939 6.72558C58.6604 5.40283 57.8778 4.20097 56.8909 3.18878C55.9041 2.17659 54.7322 1.37394 53.4426 0.826775C52.1529 0.279605 50.7707 -0.00134432 49.375 4.83609e-06L60 49.1026ZM60 49.1026C60.0013 50.534 59.7274 51.9517 59.1939 53.2744C58.6604 54.5972 57.8778 55.799 56.8909 56.8112C55.9041 57.8234 54.7322 58.6261 53.4426 59.1732C52.1529 59.7204 50.7707 60.0013 49.375 60H10.625M60 49.1026L10.625 60M10.625 60C9.22934 60.0013 7.84711 59.7204 6.55744 59.1732M10.625 60L6.55744 59.1732M6.55744 59.1732C5.26776 58.6261 4.09595 57.8234 3.10906 56.8112M6.55744 59.1732L3.10906 56.8112M3.10906 56.8112C2.12218 55.799 1.3396 54.5972 0.806105 53.2744M3.10906 56.8112L0.806105 53.2744M0.806105 53.2744C0.272615 51.9517 -0.00131071 50.534 4.71519e-06 49.1026L0.806105 53.2744ZM10.6245 0.500005H10.625L49.375 0.500005L49.3755 0.500005C50.7036 0.498721 52.0193 0.76606 53.2473 1.28706C54.4753 1.80807 55.5919 2.57271 56.5329 3.53783C57.474 4.50298 58.2208 5.64967 58.7302 6.9126C59.2396 8.17554 59.5013 9.52953 59.5 10.897V10.8974V49.1026V49.103C59.5013 50.4705 59.2396 51.8245 58.7302 53.0874C58.2208 54.3503 57.474 55.497 56.5329 56.4622C55.5919 57.4273 54.4753 58.1919 53.2473 58.7129C52.0193 59.2339 50.7036 59.5013 49.3755 59.5H49.375H10.625H10.6245C9.29638 59.5013 7.98072 59.2339 6.75272 58.7129C5.52469 58.1919 4.40806 57.4273 3.46706 56.4622C2.52604 55.497 1.77917 54.3503 1.26981 53.0874C0.760441 51.8245 0.498748 50.4705 0.500005 49.103V49.1026L0.500005 10.8974L0.500005 10.897C0.498748 9.52953 0.760441 8.17554 1.26981 6.9126C1.77917 5.64967 2.52604 4.50298 3.46706 3.53783C4.40806 2.57271 5.52469 1.80808 6.75272 1.28706C7.98072 0.76606 9.29638 0.498721 10.6245 0.500005Z" stroke="white"/>
<path d="M49.3347 13.6864L40.7603 9.55797C39.7678 9.0801 38.5817 9.28167 37.8028 10.0606L9.73317 35.6535C8.97817 36.3418 8.97904 37.5305 9.73504 38.2178L12.0279 40.3022C12.6459 40.864 13.5767 40.9054 14.2422 40.4006L48.0445 14.7574C49.1785 13.8971 50.8073 14.706 50.8073 16.1294V16.0298C50.8073 15.0307 50.2349 14.1199 49.3347 13.6864Z" fill="#CFD6DB"/>
<g filter="url(#filter0_d_81_593)">
<path d="M49.3347 46.3145L40.7603 50.443C39.7678 50.9209 38.5817 50.7192 37.8028 49.9403L9.73317 24.3475C8.97817 23.6591 8.97904 22.4704 9.73504 21.7831L12.0279 19.6987C12.6459 19.1369 13.5767 19.0955 14.2422 19.6003L48.0445 45.2435C49.1785 46.1038 50.8073 45.2949 50.8073 43.8716V43.9711C50.8073 44.9702 50.2349 45.881 49.3347 46.3145Z" fill="#D9D9D9"/>
</g>
<g filter="url(#filter1_d_81_593)">
<path d="M40.7606 50.4437C39.7678 50.9213 38.5817 50.7193 37.8027 49.9403C38.7625 50.9001 40.4036 50.2203 40.4036 48.863V11.1371C40.4036 9.77971 38.7625 9.09994 37.8027 10.0597C38.5817 9.28076 39.7678 9.0789 40.7606 9.55635L49.3336 13.6791C50.2344 14.1123 50.8073 15.0235 50.8073 16.0231V43.9772C50.8073 44.9767 50.2344 45.8879 49.3335 46.3211L40.7606 50.4437Z" fill="white"/>
</g>
<g style="mix-blend-mode:overlay" opacity="0.25">
<path style="mix-blend-mode:overlay" fill-rule="evenodd" clip-rule="evenodd" d="M38.6772 50.5233C39.3326 50.7786 40.08 50.7622 40.7415 50.4439L49.3093 46.3213C50.2095 45.8881 50.7821 44.9769 50.7821 43.9773V16.0232C50.7821 15.0236 50.2096 14.1124 49.3093 13.6792L40.7415 9.55647C39.8734 9.13871 38.8573 9.24103 38.0952 9.795C37.9864 9.87413 37.8827 9.96249 37.7854 10.0599L21.3835 25.0236L14.2391 19.6005C13.5741 19.0957 12.6438 19.1371 12.0261 19.6989L9.7347 21.7833C8.97915 22.4706 8.97829 23.6592 9.73283 24.3476L15.9286 30.0002L9.73283 35.6528C8.97829 36.3411 8.97915 37.5298 9.7347 38.217L12.0261 40.3014C12.6438 40.8633 13.5741 40.9047 14.2391 40.3999L21.3835 34.9767L37.7854 49.9405C38.0449 50.2001 38.3496 50.3956 38.6772 50.5233ZM40.3848 20.5532L27.9395 30.0002L40.3848 39.4472V20.5532Z" fill="url(#paint0_linear_81_593)"/>
</g>
<defs>
<filter id="filter0_d_81_593" x="0.834141" y="10.9145" width="58.3066" height="48.1186" filterUnits="userSpaceOnUse" color-interpolation-filters="sRGB">
<feFlood flood-opacity="0" result="BackgroundImageFix"/>
<feColorMatrix in="SourceAlpha" type="matrix" values="0 0 0 0 0 0 0 0 0 0 0 0 0 0 0 0 0 0 127 0" result="hardAlpha"/>
<feOffset/>
<feGaussianBlur stdDeviation="4.16667"/>
<feColorMatrix type="matrix" values="0 0 0 0 0 0 0 0 0 0 0 0 0 0 0 0 0 0 0.25 0"/>
<feBlend mode="overlay" in2="BackgroundImageFix" result="effect1_dropShadow_81_593"/>
<feBlend mode="normal" in="SourceGraphic" in2="effect1_dropShadow_81_593" result="shape"/>
</filter>
<filter id="filter1_d_81_593" x="29.4694" y="0.966709" width="29.6713" height="58.0667" filterUnits="userSpaceOnUse" color-interpolation-filters="sRGB">
<feFlood flood-opacity="0" result="BackgroundImageFix"/>
<feColorMatrix in="SourceAlpha" type="matrix" values="0 0 0 0 0 0 0 0 0 0 0 0 0 0 0 0 0 0 127 0" result="hardAlpha"/>
<feOffset/>
<feGaussianBlur stdDeviation="4.16667"/>
<feColorMatrix type="matrix" values="0 0 0 0 0 0 0 0 0 0 0 0 0 0 0 0 0 0 0.25 0"/>
<feBlend mode="overlay" in2="BackgroundImageFix" result="effect1_dropShadow_81_593"/>
<feBlend mode="normal" in="SourceGraphic" in2="effect1_dropShadow_81_593" result="shape"/>
</filter>
<linearGradient id="paint0_linear_81_593" x1="29.9748" y1="9.30017" x2="29.9748" y2="50.7002" gradientUnits="userSpaceOnUse">
<stop stop-color="white"/>
<stop offset="1" stop-color="white" stop-opacity="0"/>
</linearGradient>
</defs>
</svg>
